# OBJ file generated by Context Generator
# City/Profile: high_density
# Radius: 100.0m

g SiteParcel
v -30.1943 -24.7596 0.0000
v 30.1943 -24.7596 0.0000
v 30.1943 24.7596 0.0000
v -30.1943 24.7596 0.0000
f 1 2 3
f 1 3 4

g ContextBuildings
v -96.3800 -54.1200 0.0000
v -71.6200 -54.1200 0.0000
v -71.6200 -29.8800 0.0000
v -96.3800 -29.8800 0.0000
v -96.3800 -54.1200 75.5000
v -71.6200 -54.1200 75.5000
v -71.6200 -29.8800 75.5000
v -96.3800 -29.8800 75.5000
f 5 6 10
f 5 10 9
f 6 7 11
f 6 11 10
f 7 8 12
f 7 12 11
f 8 5 9
f 8 9 12
f 9 10 11
f 9 11 12
v -98.3800 -15.4600 0.0000
v -69.6200 -15.4600 0.0000
v -69.6200 15.4600 0.0000
v -98.3800 15.4600 0.0000
v -98.3800 -15.4600 39.8000
v -69.6200 -15.4600 39.8000
v -69.6200 15.4600 39.8000
v -98.3800 15.4600 39.8000
f 13 14 18
f 13 18 17
f 14 15 19
f 14 19 18
f 15 16 20
f 15 20 19
f 16 13 17
f 16 17 20
f 17 18 19
f 17 19 20
v -97.1100 30.8500 0.0000
v -70.8900 30.8500 0.0000
v -70.8900 53.1500 0.0000
v -97.1100 53.1500 0.0000
v -97.1100 30.8500 47.0000
v -70.8900 30.8500 47.0000
v -70.8900 53.1500 47.0000
v -97.1100 53.1500 47.0000
f 21 22 26
f 21 26 25
f 22 23 27
f 22 27 26
f 23 24 28
f 23 28 27
f 24 21 25
f 24 25 28
f 25 26 27
f 25 27 28
v -55.5300 -95.1300 0.0000
v -28.4700 -95.1300 0.0000
v -28.4700 -72.8700 0.0000
v -55.5300 -72.8700 0.0000
v -55.5300 -95.1300 45.9000
v -28.4700 -95.1300 45.9000
v -28.4700 -72.8700 45.9000
v -55.5300 -72.8700 45.9000
f 29 30 34
f 29 34 33
f 30 31 35
f 30 35 34
f 31 32 36
f 31 36 35
f 32 29 33
f 32 33 36
f 33 34 35
f 33 35 36
v -56.2500 -55.7200 0.0000
v -27.7500 -55.7200 0.0000
v -27.7500 -28.2800 0.0000
v -56.2500 -28.2800 0.0000
v -56.2500 -55.7200 47.1000
v -27.7500 -55.7200 47.1000
v -27.7500 -28.2800 47.1000
v -56.2500 -28.2800 47.1000
f 37 38 42
f 37 42 41
f 38 39 43
f 38 43 42
f 39 40 44
f 39 44 43
f 40 37 41
f 40 41 44
f 41 42 43
f 41 43 44
v -55.9500 -15.0500 0.0000
v -28.0500 -15.0500 0.0000
v -28.0500 15.0500 0.0000
v -55.9500 15.0500 0.0000
v -55.9500 -15.0500 35.4000
v -28.0500 -15.0500 35.4000
v -28.0500 15.0500 35.4000
v -55.9500 15.0500 35.4000
f 45 46 50
f 45 50 49
f 46 47 51
f 46 51 50
f 47 48 52
f 47 52 51
f 48 45 49
f 48 49 52
f 49 50 51
f 49 51 52
v -57.0300 27.5100 0.0000
v -26.9700 27.5100 0.0000
v -26.9700 56.4900 0.0000
v -57.0300 56.4900 0.0000
v -57.0300 27.5100 53.7000
v -26.9700 27.5100 53.7000
v -26.9700 56.4900 53.7000
v -57.0300 56.4900 53.7000
f 53 54 58
f 53 58 57
f 54 55 59
f 54 59 58
f 55 56 60
f 55 60 59
f 56 53 57
f 56 57 60
f 57 58 59
f 57 59 60
v -53.7800 68.2100 0.0000
v -30.2200 68.2100 0.0000
v -30.2200 99.7900 0.0000
v -53.7800 99.7900 0.0000
v -53.7800 68.2100 53.5000
v -30.2200 68.2100 53.5000
v -30.2200 99.7900 53.5000
v -53.7800 99.7900 53.5000
f 61 62 66
f 61 66 65
f 62 63 67
f 62 67 66
f 63 64 68
f 63 68 67
f 64 61 65
f 64 65 68
f 65 66 67
f 65 67 68
v -11.4600 -95.4800 0.0000
v 11.4600 -95.4800 0.0000
v 11.4600 -72.5200 0.0000
v -11.4600 -72.5200 0.0000
v -11.4600 -95.4800 81.6000
v 11.4600 -95.4800 81.6000
v 11.4600 -72.5200 81.6000
v -11.4600 -72.5200 81.6000
f 69 70 74
f 69 74 73
f 70 71 75
f 70 75 74
f 71 72 76
f 71 76 75
f 72 69 73
f 72 73 76
f 73 74 75
f 73 75 76
v -14.0200 -57.0400 0.0000
v 14.0200 -57.0400 0.0000
v 14.0200 -26.9600 0.0000
v -14.0200 -26.9600 0.0000
v -14.0200 -57.0400 75.1000
v 14.0200 -57.0400 75.1000
v 14.0200 -26.9600 75.1000
v -14.0200 -26.9600 75.1000
f 77 78 82
f 77 82 81
f 78 79 83
f 78 83 82
f 79 80 84
f 79 84 83
f 80 77 81
f 80 81 84
f 81 82 83
f 81 83 84
v -13.6800 26.1300 0.0000
v 13.6800 26.1300 0.0000
v 13.6800 57.8700 0.0000
v -13.6800 57.8700 0.0000
v -13.6800 26.1300 55.8000
v 13.6800 26.1300 55.8000
v 13.6800 57.8700 55.8000
v -13.6800 57.8700 55.8000
f 85 86 90
f 85 90 89
f 86 87 91
f 86 91 90
f 87 88 92
f 87 92 91
f 88 85 89
f 88 89 92
f 89 90 91
f 89 91 92
v -13.7600 68.8500 0.0000
v 13.7600 68.8500 0.0000
v 13.7600 99.1500 0.0000
v -13.7600 99.1500 0.0000
v -13.7600 68.8500 69.0000
v 13.7600 68.8500 69.0000
v 13.7600 99.1500 69.0000
v -13.7600 99.1500 69.0000
f 93 94 98
f 93 98 97
f 94 95 99
f 94 99 98
f 95 96 100
f 95 100 99
f 96 93 97
f 96 97 100
f 97 98 99
f 97 99 100
v 26.6900 -97.8900 0.0000
v 57.3100 -97.8900 0.0000
v 57.3100 -70.1100 0.0000
v 26.6900 -70.1100 0.0000
v 26.6900 -97.8900 73.8000
v 57.3100 -97.8900 73.8000
v 57.3100 -70.1100 73.8000
v 26.6900 -70.1100 73.8000
f 101 102 106
f 101 106 105
f 102 103 107
f 102 107 106
f 103 104 108
f 103 108 107
f 104 101 105
f 104 105 108
f 105 106 107
f 105 107 108
v 30.7700 -54.1400 0.0000
v 53.2300 -54.1400 0.0000
v 53.2300 -29.8600 0.0000
v 30.7700 -29.8600 0.0000
v 30.7700 -54.1400 50.9000
v 53.2300 -54.1400 50.9000
v 53.2300 -29.8600 50.9000
v 30.7700 -29.8600 50.9000
f 109 110 114
f 109 114 113
f 110 111 115
f 110 115 114
f 111 112 116
f 111 116 115
f 112 109 113
f 112 113 116
f 113 114 115
f 113 115 116
v 30.6000 -12.1600 0.0000
v 53.4000 -12.1600 0.0000
v 53.4000 12.1600 0.0000
v 30.6000 12.1600 0.0000
v 30.6000 -12.1600 40.6000
v 53.4000 -12.1600 40.6000
v 53.4000 12.1600 40.6000
v 30.6000 12.1600 40.6000
f 117 118 122
f 117 122 121
f 118 119 123
f 118 123 122
f 119 120 124
f 119 124 123
f 120 117 121
f 120 121 124
f 121 122 123
f 121 123 124
v 29.6100 27.8200 0.0000
v 54.3900 27.8200 0.0000
v 54.3900 56.1800 0.0000
v 29.6100 56.1800 0.0000
v 29.6100 27.8200 55.1000
v 54.3900 27.8200 55.1000
v 54.3900 56.1800 55.1000
v 29.6100 56.1800 55.1000
f 125 126 130
f 125 130 129
f 126 127 131
f 126 131 130
f 127 128 132
f 127 132 131
f 128 125 129
f 128 129 132
f 129 130 131
f 129 131 132
v 29.1500 71.9500 0.0000
v 54.8500 71.9500 0.0000
v 54.8500 96.0500 0.0000
v 29.1500 96.0500 0.0000
v 29.1500 71.9500 49.7000
v 54.8500 71.9500 49.7000
v 54.8500 96.0500 49.7000
v 29.1500 96.0500 49.7000
f 133 134 138
f 133 138 137
f 134 135 139
f 134 139 138
f 135 136 140
f 135 140 139
f 136 133 137
f 136 137 140
f 137 138 139
f 137 139 140
v 68.3200 -56.2400 0.0000
v 99.6800 -56.2400 0.0000
v 99.6800 -27.7600 0.0000
v 68.3200 -27.7600 0.0000
v 68.3200 -56.2400 68.5000
v 99.6800 -56.2400 68.5000
v 99.6800 -27.7600 68.5000
v 68.3200 -27.7600 68.5000
f 141 142 146
f 141 146 145
f 142 143 147
f 142 147 146
f 143 144 148
f 143 148 147
f 144 141 145
f 144 145 148
f 145 146 147
f 145 147 148
v 72.1400 -14.6500 0.0000
v 95.8600 -14.6500 0.0000
v 95.8600 14.6500 0.0000
v 72.1400 14.6500 0.0000
v 72.1400 -14.6500 44.0000
v 95.8600 -14.6500 44.0000
v 95.8600 14.6500 44.0000
v 72.1400 14.6500 44.0000
f 149 150 154
f 149 154 153
f 150 151 155
f 150 155 154
f 151 152 156
f 151 156 155
f 152 149 153
f 152 153 156
f 153 154 155
f 153 155 156
v 71.1000 26.0500 0.0000
v 96.9000 26.0500 0.0000
v 96.9000 57.9500 0.0000
v 71.1000 57.9500 0.0000
v 71.1000 26.0500 70.2000
v 96.9000 26.0500 70.2000
v 96.9000 57.9500 70.2000
v 71.1000 57.9500 70.2000
f 157 158 162
f 157 162 161
f 158 159 163
f 158 163 162
f 159 160 164
f 159 164 163
f 160 157 161
f 160 161 164
f 161 162 163
f 161 163 164