# OBJ file generated by Context Generator
# City/Profile: superhigh_density
# Radius: 100.0m

g SiteParcel
v -16.6600 -44.2100 0.0000
v 46.6200 -7.6800 0.0000
v 16.6600 44.2100 0.0000
v -46.6200 7.6800 0.0000
f 1 2 3
f 1 3 4

g ContextBuildings
v 32.9500 21.6000 0.0000
v 22.1600 32.3500 0.0000
v 6.0100 16.1300 0.0000
v 16.8000 5.3800 0.0000
v 32.9500 21.6000 198.1000
v 22.1600 32.3500 198.1000
v 6.0100 16.1300 198.1000
v 16.8000 5.3800 198.1000
f 5 6 10
f 5 10 9
f 6 7 11
f 6 11 10
f 7 8 12
f 7 12 11
f 8 5 9
f 8 9 12
f 9 10 11
f 9 11 12
v -8.8900 34.5600 0.0000
v -22.1900 27.3700 0.0000
v -14.2000 12.6000 0.0000
v -0.9000 19.8000 0.0000
v -8.8900 34.5600 192.2000
v -22.1900 27.3700 192.2000
v -14.2000 12.6000 192.2000
v -0.9000 19.8000 192.2000
f 13 14 18
f 13 18 17
f 14 15 19
f 14 19 18
f 15 16 20
f 15 20 19
f 16 13 17
f 16 17 20
f 17 18 19
f 17 19 20
v -42.2100 5.5200 0.0000
v -39.5100 -16.7300 0.0000
v -20.6200 -14.4400 0.0000
v -23.3100 7.8100 0.0000
v -42.2100 5.5200 135.6000
v -39.5100 -16.7300 135.6000
v -20.6200 -14.4400 135.6000
v -23.3100 7.8100 135.6000
f 21 22 26
f 21 26 25
f 22 23 27
f 22 27 26
f 23 24 28
f 23 28 27
f 24 21 25
f 24 25 28
f 25 26 27
f 25 27 28
v -18.6000 -37.9100 0.0000
v 4.0200 -42.6000 0.0000
v 7.2500 -27.0100 0.0000
v -15.3800 -22.3300 0.0000
v -18.6000 -37.9100 135.6000
v 4.0200 -42.6000 135.6000
v 7.2500 -27.0100 135.6000
v -15.3800 -22.3300 135.6000
f 29 30 34
f 29 34 33
f 30 31 35
f 30 35 34
f 31 32 36
f 31 36 35
f 32 29 33
f 32 33 36
f 33 34 35
f 33 35 36
v 25.1400 -26.8300 0.0000
v 36.9500 -6.9000 0.0000
v 23.8600 0.8600 0.0000
v 12.0400 -19.0600 0.0000
v 25.1400 -26.8300 151.8000
v 36.9500 -6.9000 151.8000
v 23.8600 0.8600 151.8000
v 12.0400 -19.0600 151.8000
f 37 38 42
f 37 42 41
f 38 39 43
f 38 43 42
f 39 40 44
f 39 44 43
f 40 37 41
f 40 41 44
f 41 42 43
f 41 43 44
v 39.0100 54.7600 0.0000
v 27.3700 63.4300 0.0000
v 15.7100 47.7900 0.0000
v 27.3600 39.1100 0.0000
v 39.0100 54.7600 264.5000
v 27.3700 63.4300 264.5000
v 15.7100 47.7900 264.5000
v 27.3600 39.1100 264.5000
f 45 46 50
f 45 50 49
f 46 47 51
f 46 51 50
f 47 48 52
f 47 52 51
f 48 45 49
f 48 49 52
f 49 50 51
f 49 51 52
v -2.5100 68.9300 0.0000
v -19.2900 63.8800 0.0000
v -13.0800 43.2500 0.0000
v 3.7000 48.3000 0.0000
v -2.5100 68.9300 152.3000
v -19.2900 63.8800 152.3000
v -13.0800 43.2500 152.3000
v 3.7000 48.3000 152.3000
f 53 54 58
f 53 58 57
f 54 55 59
f 54 59 58
f 55 56 60
f 55 60 59
f 56 53 57
f 56 57 60
f 57 58 59
f 57 59 60
v -43.5800 54.1700 0.0000
v -53.0800 42.7800 0.0000
v -36.2300 28.7300 0.0000
v -26.7300 40.1200 0.0000
v -43.5800 54.1700 277.0000
v -53.0800 42.7800 277.0000
v -36.2300 28.7300 277.0000
v -26.7300 40.1200 277.0000
f 61 62 66
f 61 66 65
f 62 63 67
f 62 67 66
f 63 64 68
f 63 68 67
f 64 61 65
f 64 65 68
f 65 66 67
f 65 67 68
v -68.6200 24.7700 0.0000
v -73.3400 0.8300 0.0000
v -55.1300 -2.7600 0.0000
v -50.4100 21.1800 0.0000
v -68.6200 24.7700 246.8000
v -73.3400 0.8300 246.8000
v -55.1300 -2.7600 246.8000
v -50.4100 21.1800 246.8000
f 69 70 74
f 69 74 73
f 70 71 75
f 70 75 74
f 71 72 76
f 71 76 75
f 72 69 73
f 72 73 76
f 73 74 75
f 73 75 76
v -65.6700 -22.7700 0.0000
v -56.3900 -38.5000 0.0000
v -37.4100 -27.3100 0.0000
v -46.6900 -11.5800 0.0000
v -65.6700 -22.7700 216.7000
v -56.3900 -38.5000 216.7000
v -37.4100 -27.3100 216.7000
v -46.6900 -11.5800 216.7000
f 77 78 82
f 77 82 81
f 78 79 83
f 78 83 82
f 79 80 84
f 79 84 83
f 80 77 81
f 80 81 84
f 81 82 83
f 81 83 84
v -41.3000 -52.3400 0.0000
v -23.3600 -64.4100 0.0000
v -11.9700 -47.4800 0.0000
v -29.9100 -35.4100 0.0000
v -41.3000 -52.3400 172.5000
v -23.3600 -64.4100 172.5000
v -11.9700 -47.4800 172.5000
v -29.9100 -35.4100 172.5000
f 85 86 90
f 85 90 89
f 86 87 91
f 86 91 90
f 87 88 92
f 87 92 91
f 88 85 89
f 88 89 92
f 89 90 91
f 89 91 92
v -4.2500 -69.0600 0.0000
v 20.8400 -68.4100 0.0000
v 20.2700 -46.1600 0.0000
v -4.8300 -46.8100 0.0000
v -4.2500 -69.0600 144.9000
v 20.8400 -68.4100 144.9000
v 20.2700 -46.1600 144.9000
v -4.8300 -46.8100 144.9000
f 93 94 98
f 93 98 97
f 94 95 99
f 94 99 98
f 95 96 100
f 95 100 99
f 96 93 97
f 96 97 100
f 97 98 99
f 97 99 100
v 47.7400 -57.9900 0.0000
v 56.9900 -46.6000 0.0000
v 38.4700 -31.5500 0.0000
v 29.2200 -42.9400 0.0000
v 47.7400 -57.9900 160.2000
v 56.9900 -46.6000 160.2000
v 38.4700 -31.5500 160.2000
v 29.2200 -42.9400 160.2000
f 101 102 106
f 101 106 105
f 102 103 107
f 102 107 106
f 103 104 108
f 103 108 107
f 104 101 105
f 104 105 108
f 105 106 107
f 105 107 108
v 64.9100 -23.2500 0.0000
v 67.1300 1.6000 0.0000
v 46.4000 3.4500 0.0000
v 44.1900 -21.4100 0.0000
v 64.9100 -23.2500 122.5000
v 67.1300 1.6000 122.5000
v 46.4000 3.4500 122.5000
v 44.1900 -21.4100 122.5000
f 109 110 114
f 109 114 113
f 110 111 115
f 110 115 114
f 111 112 116
f 111 116 115
f 112 109 113
f 112 113 116
f 113 114 115
f 113 115 116
v 68.0500 17.8000 0.0000
v 60.5600 41.2500 0.0000
v 39.8700 34.6300 0.0000
v 47.3700 11.1900 0.0000
v 68.0500 17.8000 107.9000
v 60.5600 41.2500 107.9000
v 39.8700 34.6300 107.9000
v 47.3700 11.1900 107.9000
f 117 118 122
f 117 122 121
f 118 119 123
f 118 123 122
f 119 120 124
f 119 124 123
f 120 117 121
f 120 121 124
f 121 122 123
f 121 123 124
v -61.7600 79.7700 0.0000
v -77.7100 63.2400 0.0000
v -63.9400 49.9500 0.0000
v -47.9900 66.4700 0.0000
v -61.7600 79.7700 152.4000
v -77.7100 63.2400 152.4000
v -63.9400 49.9500 152.4000
v -47.9900 66.4700 152.4000
f 125 126 130
f 125 130 129
f 126 127 131
f 126 131 130
f 127 128 132
f 127 132 131
f 128 125 129
f 128 129 132
f 129 130 131
f 129 131 132
v -94.6100 45.3300 0.0000
v -98.9300 30.2800 0.0000
v -79.7900 24.7800 0.0000
v -75.4600 39.8300 0.0000
v -94.6100 45.3300 252.2000
v -98.9300 30.2800 252.2000
v -79.7900 24.7800 252.2000
v -75.4600 39.8300 252.2000
f 133 134 138
f 133 138 137
f 134 135 139
f 134 139 138
f 135 136 140
f 135 140 139
f 136 133 137
f 136 137 140
f 137 138 139
f 137 139 140
v -98.8100 3.9100 0.0000
v -97.6200 -11.9600 0.0000
v -75.5100 -10.3000 0.0000
v -76.7100 5.5800 0.0000
v -98.8100 3.9100 157.0000
v -97.6200 -11.9600 157.0000
v -75.5100 -10.3000 157.0000
v -76.7100 5.5800 157.0000
f 141 142 146
f 141 146 145
f 142 143 147
f 142 147 146
f 143 144 148
f 143 148 147
f 144 141 145
f 144 145 148
f 145 146 147
f 145 147 148
v -93.5700 -35.1200 0.0000
v -84.5700 -52.5500 0.0000
v -69.4500 -44.7400 0.0000
v -78.4500 -27.3100 0.0000
v -93.5700 -35.1200 268.5000
v -84.5700 -52.5500 268.5000
v -69.4500 -44.7400 268.5000
v -78.4500 -27.3100 268.5000
f 149 150 154
f 149 154 153
f 150 151 155
f 150 155 154
f 151 152 156
f 151 156 155
f 152 149 153
f 152 153 156
f 153 154 155
f 153 155 156
v -71.9300 -76.0200 0.0000
v -59.2100 -84.6500 0.0000
v -45.3900 -64.2800 0.0000
v -58.1100 -55.6500 0.0000
v -71.9300 -76.0200 233.7000
v -59.2100 -84.6500 233.7000
v -45.3900 -64.2800 233.7000
v -58.1100 -55.6500 233.7000
f 157 158 162
f 157 162 161
f 158 159 163
f 158 163 162
f 159 160 164
f 159 164 163
f 160 157 161
f 160 161 164
f 161 162 163
f 161 163 164
v -35.7400 -88.3700 0.0000
v -20.1700 -96.4100 0.0000
v -12.8800 -82.2800 0.0000
v -28.4500 -74.2500 0.0000
v -35.7400 -88.3700 224.4000
v -20.1700 -96.4100 224.4000
v -12.8800 -82.2800 224.4000
v -28.4500 -74.2500 224.4000
f 165 166 170
f 165 170 169
f 166 167 171
f 166 171 170
f 167 168 172
f 167 172 171
f 168 165 169
f 168 169 172
f 169 170 171
f 169 171 172
v 1.8900 -104.1400 0.0000
v 27.2900 -100.4500 0.0000
v 23.9600 -77.5400 0.0000
v -1.4400 -81.2400 0.0000
v 1.8900 -104.1400 101.3000
v 27.2900 -100.4500 101.3000
v 23.9600 -77.5400 101.3000
v -1.4400 -81.2400 101.3000
f 173 174 178
f 173 178 177
f 174 175 179
f 174 179 178
f 175 176 180
f 175 180 179
f 176 173 177
f 176 177 180
f 177 178 179
f 177 179 180
v 41.7300 -91.3100 0.0000
v 63.5400 -81.0500 0.0000
v 54.9800 -62.8700 0.0000
v 33.1800 -73.1300 0.0000
v 41.7300 -91.3100 154.8000
v 63.5400 -81.0500 154.8000
v 54.9800 -62.8700 154.8000
v 33.1800 -73.1300 154.8000
f 181 182 186
f 181 186 185
f 182 183 187
f 182 187 186
f 183 184 188
f 183 188 187
f 184 181 185
f 184 185 188
f 185 186 187
f 185 187 188
v 78.6400 -65.4400 0.0000
v 89.1100 -42.2600 0.0000
v 66.2700 -31.9400 0.0000
v 55.7900 -55.1200 0.0000
v 78.6400 -65.4400 199.8000
v 89.1100 -42.2600 199.8000
v 66.2700 -31.9400 199.8000
v 55.7900 -55.1200 199.8000
f 189 190 194
f 189 194 193
f 190 191 195
f 190 195 194
f 191 192 196
f 191 196 195
f 192 189 193
f 192 193 196
f 193 194 195
f 193 195 196
v 97.9100 -22.9300 0.0000
v 97.5800 -7.6000 0.0000
v 79.2300 -7.9900 0.0000
v 79.5600 -23.3300 0.0000
v 97.9100 -22.9300 241.4000
v 97.5800 -7.6000 241.4000
v 79.2300 -7.9900 241.4000
v 79.5600 -23.3300 241.4000
f 197 198 202
f 197 202 201
f 198 199 203
f 198 203 202
f 199 200 204
f 199 204 203
f 200 197 201
f 200 201 204
f 201 202 203
f 201 203 204
v 96.2900 13.8000 0.0000
v 94.9900 30.6400 0.0000
v 74.2400 29.0300 0.0000
v 75.5500 12.1900 0.0000
v 96.2900 13.8000 226.4000
v 94.9900 30.6400 226.4000
v 74.2400 29.0300 226.4000
v 75.5500 12.1900 226.4000
f 205 206 210
f 205 210 209
f 206 207 211
f 206 211 210
f 207 208 212
f 207 212 211
f 208 205 209
f 208 209 212
f 209 210 211
f 209 211 212
v 88.0300 50.9200 0.0000
v 75.3500 73.3100 0.0000
v 57.6000 63.2600 0.0000
v 70.2800 40.8700 0.0000
v 88.0300 50.9200 212.0000
v 75.3500 73.3100 212.0000
v 57.6000 63.2600 212.0000
v 70.2800 40.8700 212.0000
f 213 214 218
f 213 218 217
f 214 215 219
f 214 219 218
f 215 216 220
f 215 220 219
f 216 213 217
f 216 217 220
f 217 218 219
f 217 219 220
v 55.3700 88.4400 0.0000
v 40.9400 95.3100 0.0000
v 32.2000 76.9500 0.0000
v 46.6300 70.0800 0.0000
v 55.3700 88.4400 272.9000
v 40.9400 95.3100 272.9000
v 32.2000 76.9500 272.9000
v 46.6300 70.0800 272.9000
f 221 222 226
f 221 226 225
f 222 223 227
f 222 227 226
f 223 224 228
f 223 228 227
f 224 221 225
f 224 225 228
f 225 226 227
f 225 227 228
v 17.7000 104.5500 0.0000
v -5.3600 104.1600 0.0000
v -4.9800 81.8800 0.0000
v 18.0800 82.2700 0.0000
v 17.7000 104.5500 159.8000
v -5.3600 104.1600 159.8000
v -4.9800 81.8800 159.8000
v 18.0800 82.2700 159.8000
f 229 230 234
f 229 234 233
f 230 231 235
f 230 235 234
f 231 232 236
f 231 236 235
f 232 229 233
f 232 233 236
f 233 234 235
f 233 235 236
v -26.6900 100.5400 0.0000
v -44.1700 94.5300 0.0000
v -36.1000 71.0800 0.0000
v -18.6300 77.0900 0.0000
v -26.6900 100.5400 129.6000
v -44.1700 94.5300 129.6000
v -36.1000 71.0800 129.6000
v -18.6300 77.0900 129.6000
f 237 238 242
f 237 242 241
f 238 239 243
f 238 243 242
f 239 240 244
f 239 244 243
f 240 237 241
f 240 241 244
f 241 242 243
f 241 243 244